<?xml version="1.0" encoding="UTF-8" standalone="no"?>
<!-- Created with Inkscape (http://www.inkscape.org/) -->

<svg
   xmlns:dc="http://purl.org/dc/elements/1.1/"
   xmlns:cc="http://creativecommons.org/ns#"
   xmlns:rdf="http://www.w3.org/1999/02/22-rdf-syntax-ns#"
   xmlns:svg="http://www.w3.org/2000/svg"
   xmlns="http://www.w3.org/2000/svg"
   xmlns:sodipodi="http://sodipodi.sourceforge.net/DTD/sodipodi-0.dtd"
   xmlns:inkscape="http://www.inkscape.org/namespaces/inkscape"
   id="svg1376"
   sodipodi:version="0.32"
   inkscape:version="0.47 r22583"
   width="667.49652"
   height="852.15363"
   sodipodi:docname="blackbudget.svg"
   version="1.0">
  <title
     id="title2813">Spy</title>
  <metadata
     id="metadata1381">
    <rdf:RDF>
      <cc:Work
         rdf:about="">
        <dc:format>image/svg+xml</dc:format>
        <dc:type
           rdf:resource="http://purl.org/dc/dcmitype/StillImage" />
        <dc:title>Spy</dc:title>
        <cc:license
           rdf:resource="http://creativecommons.org/licenses/publicdomain/" />
      </cc:Work>
      <cc:License
         rdf:about="http://creativecommons.org/licenses/publicdomain/">
        <cc:permits
           rdf:resource="http://creativecommons.org/ns#Reproduction" />
        <cc:permits
           rdf:resource="http://creativecommons.org/ns#Distribution" />
        <cc:permits
           rdf:resource="http://creativecommons.org/ns#DerivativeWorks" />
      </cc:License>
    </rdf:RDF>
  </metadata>
  <defs
     id="defs1379">
    <inkscape:perspective
       sodipodi:type="inkscape:persp3d"
       inkscape:vp_x="0 : 526.18109 : 1"
       inkscape:vp_y="0 : 1000 : 0"
       inkscape:vp_z="744.09448 : 526.18109 : 1"
       inkscape:persp3d-origin="372.04724 : 350.78739 : 1"
       id="perspective7" />
  </defs>
  <sodipodi:namedview
     inkscape:window-height="756"
     inkscape:window-width="1264"
     inkscape:pageshadow="2"
     inkscape:pageopacity="0.0"
     borderopacity="1.0"
     bordercolor="#666666"
     pagecolor="#ffffff"
     id="base"
     showguides="true"
     inkscape:guide-bbox="true"
     inkscape:zoom="0.17769548"
     inkscape:cx="298.30564"
     inkscape:cy="384.9632"
     inkscape:window-x="0"
     inkscape:window-y="0"
     inkscape:current-layer="svg1376"
     showgrid="false"
     showborder="true"
     inkscape:window-maximized="0" />
  <path
     style="fill:#000000;fill-opacity:1;fill-rule:evenodd;stroke:#000000;stroke-width:1px;stroke-linecap:butt;stroke-linejoin:miter;stroke-opacity:1"
     d="M 324.7426,0.50595978 C 228.0739,1.9986678 140.9115,50.117498 147.8364,73.662208 c 6.7313,22.88652 41.7919,89.560352 37.4062,165.531242 -10.6578,5.21273 -60.7195,31.96252 -55.6875,72.21875 3.5668,28.53371 21.9551,43.57003 49.1875,50 1.7794,12.28598 4.1929,29.13986 6.625,46.53125 -9.8716,1.84402 -22.2114,4.71328 -26.9687,8.28125 -8.4414,6.33106 -18.9915,24.62337 -37.2813,61.90625 -17.5368,35.74822 -40.110295,48.5433 -37.999995,56.28125 2.1104,7.73796 33.781295,30.24997 33.781295,30.25 0,0 -64.740191,22.49544 -85.843791,32.34375 -21.1035007,9.84831 -47.4044,30.48837 -16.1875,45.75 31.6553,15.47591 30.7936,9.77099 78.812496,49.21875 37.947795,31.17424 54.939495,53.75075 63.999995,64.71875 13.3656,16.17935 25.3353,-12.65789 43.625,-42.90625 14.4358,-23.87458 32.3503,-38.69042 18.2813,-66.125 -11.7854,-22.98156 -31.6416,-66.12856 -29.5313,-92.15625 2.0445,-25.21431 7.3867,-35.24147 7.7188,-35.84375 0.2986,0.17227 9.8651,5.72673 11.25,13.34375 1.4069,7.73796 0.315,41.16021 8.4375,63.3125 7.738,21.10352 25.3545,41.50521 35.9062,30.25 10.5518,-11.25521 42.8825,-67.53937 60.4688,-83.71875 17.5862,-16.17936 33.0606,-27.42547 37.2812,-19.6875 4.2207,7.73796 -30.9485,48.54522 -74.5625,119.59375 -43.6139,71.04851 -89.3372,150.51695 -103.4062,181.46875 -14.069,30.95182 -8.432,30.26855 13.375,23.9375 23.2444,-13.51801 278.1372,-78.04514 298.9687,-80.90625 21.3213,-2.92836 30.9453,-13.36586 14.0625,-33.0625 C 482.6723,714.49684 383.9928,611.14974 376.4614,592.0997 c -11.9587,-30.24838 -9.8395,-32.36949 14.7812,-10.5625 14.1692,12.54988 28.8145,29.54167 24.5938,7.03125 -4.2207,-22.51043 -13.3585,-74.54069 -15.4688,-87.90625 -2.0817,-13.18371 -1.4114,-23.21679 9.8438,-27.4375 11.2552,-4.2207 16.6289,2.39035 19.7187,14.75 4.2207,16.88281 14.0606,48.53877 18.2813,66.125 2.9732,12.38825 3.5254,17.5957 16.1875,13.375 12.6621,-4.22071 61.8991,-25.30989 77.375,-30.9375 15.4759,-5.62761 24.6224,-7.03645 30.25,4.21875 5.6276,11.25521 -11.9642,16.87239 -21.8125,22.5 -9.8483,5.62761 -85.8385,37.99677 -97.0938,45.03125 -11.2552,7.03451 -15.4758,12.64847 0,29.53125 15.4759,16.88282 50.6498,52.05599 64.7188,66.125 14.0691,14.06902 16.6967,13.34673 42.2187,10.5625 38.6898,-4.2207 91.4649,-51.36911 99.9063,-64.03125 8.4414,-12.66211 11.2565,-25.30857 -2.8125,-33.75 -14.069,-8.44141 -39.403,-28.15301 -46.4375,-35.1875 -7.0345,-7.03451 -18.2845,-9.83722 -11.25,-23.90625 7.0345,-14.06902 1.3809,-13.36916 -11.2813,-26.03125 -12.6621,-12.66211 -36.0713,-38.0875 -39.375,-69.65625 -6.3311,-60.49676 -23.2873,-42.63182 -15.125,-72.78125 9.4604,-34.94371 24.7231,-31.03814 35.875,-29 5.674,2.31336 10.0488,1.64054 13,-3.71875 14.4121,-26.17179 12.385,-73.03502 -66.0937,-94.3125 -3.2273,-85.003 24.6876,-135.81556 50.625,-205.374992 C 468.6033,6.1075158 429.3155,0.50595978 329.3364,0.50595978 c -1.1541,1e-6 -2.3171,-0.01341 -3.4688,0 -0.3793,0.0044 -0.7459,-0.0059 -1.125,0 z M 510.7739,68.193458 c 0.0715,-0.003 0.1475,0.003 0.2187,0 0.0716,-0.003 0.1475,0.003 0.2188,0 0.0715,-0.003 0.1475,0.002 0.2187,0 0.1437,-0.005 0.295,0.004 0.4375,0 0.1437,-0.004 0.295,0.003 0.4375,0 10.207,-0.21576 17.4926,2.00694 18.1875,3.28125 0.006,0.0114 0.0235,0.0464 0.0313,0.0625 1.319,3.78105 -13.1011,34.377442 -23.7188,70.187492 -10.6177,35.81004 -16.3883,74.0306 -21.3125,75.4375 -9.8483,2.81379 -14.0559,-7.03061 -28.125,-8.4375 -14.069,-1.40689 -19.7148,7.03516 -28.1562,-1.40625 -8.4414,-8.4414 -4.2305,-40.81834 21.0937,-95.6875 15.6882,-33.990982 42.2379,-42.640812 60.4688,-43.437492 z M 272.7426,183.63095 c 0.1596,-0.004 0.311,0.003 0.4688,0 0.1629,-0.003 0.339,0.003 0.5,0 0.1662,-0.003 0.3358,0.002 0.5,0 0.3503,-0.005 0.6902,0.002 1.0312,0 7.9752,-0.0447 13.3913,0.64904 15.75,2.9375 4.2214,4.10295 4.2285,15.79058 5.25,36.1875 1.2831,25.74296 0.4216,37.43335 -4.5625,42.5625 -4.6161,4.75053 -12.8547,4.44009 -33,4.9375 -19.6478,0.49741 -27.836,0.72738 -32.375,-3.625 -4.5389,-4.35239 -5.6562,-16.04608 -5.6562,-36.9375 0,-20.89143 -1.108,-35.17514 2.25,-39.84375 3.239,-4.50321 15.6738,-4.51738 32.5625,-5.40625 6.5449,-0.34446 12.3344,-0.70224 17.2812,-0.8125 z m -16.5,18.65625 c -0.4178,0.0185 -0.8393,0.0546 -1.2812,0.0625 -6.7141,0.11777 -13.4349,4.22194 -12.9375,22.875 0.4974,18.65303 0.7508,25.875 12.9375,25.875 14.9225,0 16.4024,-6.96654 15.6562,-30.59375 -0.5378,-16.85249 -1.536,-18.2889 -12.3437,-18.21875 -0.254,0.002 -0.5166,-0.005 -0.7813,0 -0.1984,0.003 -0.3893,-0.005 -0.5937,0 -0.1533,0.004 -0.311,-0.006 -0.4688,0 -0.0591,0.002 -0.1278,-0.003 -0.1875,0 z m 179.9063,36.8125 c 0.0367,-0.003 0.0878,0.002 0.125,0 0.006,-3.6e-4 0.0248,1.6e-4 0.0312,0 0.0397,-4e-5 0.0889,10e-4 0.125,0 0.1928,-0.006 0.3708,0.002 0.5625,0 24.1631,-0.24078 41.8075,8.2584 41.4688,14.625 -0.6026,11.32677 -54.3484,2.27615 -128.75,42.9375 -107.0887,58.52519 -123.7813,45.70607 -123.7813,39.375 0,-6.33106 19.6636,-11.34256 47.125,-26.03125 30.2484,-16.17938 78.0896,-41.49088 121,-61.1875 14.5829,-6.69378 29.0382,-9.41527 41.7813,-9.6875 0.1088,-0.002 0.2025,-0.022 0.3125,-0.0312 z m 11.7812,67.9375 c 13.4774,-0.46751 27.6165,6.10525 50.9375,16.34375 28.8415,12.66211 22.4854,24.61653 20.375,42.90625 -2.1103,18.28971 -12.6358,36.57781 -23.1875,37.28125 -10.5518,0.70345 -5.6243,-10.54134 -7.0312,-22.5 -1.4069,-11.95866 -5.6344,-28.84374 -19,-28.84375 -13.3656,0 -12.6709,18.29003 -14.7813,33.0625 -2.1103,14.77246 -12.651,29.52735 -23.9062,37.96875 -11.009,8.25675 -32.1163,17.86509 -33.7116,18.28125 1.4674,-1.55276 19.9335,-62.99849 25.2468,-80.87044 7.738,-26.02767 -1.3867,-47.14291 15.496,-52.06706 3.2315,-0.94251 6.3722,-1.45183 9.5625,-1.5625 z m -45,3.59375 c 0.003,3.9e-4 0.0287,-10e-5 0.0313,0 4.6857,21.09896 7.3279,63.05117 -43.0313,154.40625 -26.3685,47.83433 -49.5953,50.02197 -79.8437,53.1875 -63.3761,6.6324 -75.5923,-19.09665 -70.5625,-37.96875 9.2618,-7.25735 20.0987,-14.0625 26.9375,-14.0625 18.2898,2e-5 26.7402,11.25131 47.8437,8.4375 21.1035,-2.81377 38,-29.5625 38,-29.5625 0,2e-5 -23.9315,4.22592 -36.5937,-11.25 -10.1722,-12.43274 -20.2258,-19.3376 -33.1563,-22.34375 -1.1679,-7.58868 -1.8502,-16.55423 -0.5937,-24.09375 1.3319,-7.99108 4.2454,-17.54986 6.9375,-25.40625 2.8873,-0.50261 5.749,-1.05357 8.5937,-1.65625 0.003,2.7e-4 0.0287,-7e-5 0.0313,0 7.5608,0.37231 10.144,3.52915 16.0625,10.1875 11.2552,12.6621 23.223,21.09701 47.8437,14.0625 20.3028,-5.80083 33.0619,-22.49153 34.4688,-40.78125 0.8079,-10.50231 5.0953,-18.00894 12.0625,-23.8125 0.005,-0.006 0.0257,-0.0256 0.0312,-0.0312 0.0111,2.7e-4 0.0515,-2.7e-4 0.0625,0 0.006,-0.006 0.0258,-0.0255 0.0313,-0.0312 0.002,-0.003 0.0289,-0.028 0.0312,-0.0312 8.2864,-3.34562 16.542,-6.47765 24.8125,-9.25 z M 202.7739,364.8497 c 9.1807,0.61462 18.9687,0.62038 29.2187,0.125 l -8.25,49.53125 c -5.9656,2.52959 -12.3776,5.8253 -18.5,9.28125 -1.6776,-22.04486 -2.2715,-43.89506 -2.4687,-58.9375 z"
     id="path2260"
     sodipodi:nodetypes="cscsccssscssssssscssssssscsssssssssssssssssssssssscsccssccssssssssssssccssssccscssssccssscssssccssssssssssccssssssscsscccsscsscscscsssssssssccccccc" />
</svg>